# xmcd
#
# Track frame offsets:
#	150
#	12760
#	33588
#	44345
#	64992
#	83197
#	99036
#	115910
#	136254
#	169566
#	179970
#	193015
#	217298
#	239852
#	256173
#	277598
#
# Disc length: 4603 seconds
#
# Revision: 0
# Processed by: cddbd v1.5.2PL0 Copyright (c) Steve Scherf et al.
# Submitted via: EZCDAudioConverter 2.1.7.1
#
DISCID=e511f910
DTITLE=Super Furry Animals - Mwng 2/2
DYEAR=1900
DGENRE=
TTITLE0=Cryndod Yn Dy Lais
TTITLE1=Trons Mr. Urdd
TTITLE2=Calimero
TTITLE3=Sali Mali
TTITLE4=(Nid) Hon Yw'r Gân Sy'n Mynd I Achub Yr Iaith
TTITLE5=Nythod Cacwn [Peel Session]
TTITLE6=Cryndod Yn Dy Lais [Peel Session]
TTITLE7=Y Gwyneb Iau [Peel Session]
TTITLE8=Gwreiddiau Dwfn - Mawrth Oer Ar Y Blaned Neifion [Peel Session]
TTITLE9=Drygioni [Live]
TTITLE10=Ysbeidiau Heulog [Live]
TTITLE11=Pan Ddaw'r Wawr [Live]
TTITLE12=Y Gwyneb Iau [Live]
TTITLE13=Ymaelodi Â'r Ymylon [Live]
TTITLE14=Nythod Cacwn [Live]
TTITLE15=Gwreiddiau Dwfn - Mawrth Oer Ar Y Blaned Neifion [Live]
EXTD=
EXTT0=
EXTT1=
EXTT2=
EXTT3=
EXTT4=
EXTT5=
EXTT6=
EXTT7=
EXTT8=
EXTT9=
EXTT10=
EXTT11=
EXTT12=
EXTT13=
EXTT14=
EXTT15=
PLAYORDER=
